<svg id="Capa_1" data-name="Capa 1" xmlns="http://www.w3.org/2000/svg" xmlns:xlink="http://www.w3.org/1999/xlink" viewBox="0 0 1101.18 293.95"><defs><style>.cls-1{fill:url(#Degradado_sin_nombre_30);}.cls-2{fill:url(#Degradado_sin_nombre_30-2);}.cls-3{fill:#ffde00;}.cls-4{fill:#fabc00;}.cls-5{fill:url(#Degradado_sin_nombre_10);}.cls-6{clip-path:url(#clip-path);}.cls-7{clip-path:url(#clip-path-2);}.cls-8{fill:url(#Degradado_sin_nombre_30-5);}.cls-9{clip-path:url(#clip-path-3);}.cls-10{clip-path:url(#clip-path-4);}.cls-11{clip-path:url(#clip-path-5);}.cls-12{clip-path:url(#clip-path-6);}.cls-13{clip-path:url(#clip-path-7);}.cls-14,.cls-15{fill:#a1cc14;}.cls-15{font-size:57.43px;font-family:MADEWaffleSoft, MADE Waffle Soft;}</style><linearGradient id="Degradado_sin_nombre_30" x1="276.08" y1="79.46" x2="426.97" y2="230.36" gradientUnits="userSpaceOnUse"><stop offset="0.11" stop-color="#f39200"/><stop offset="0.62" stop-color="#ffde00"/></linearGradient><linearGradient id="Degradado_sin_nombre_30-2" x1="275.86" y1="96.98" x2="460.37" y2="281.48" xlink:href="#Degradado_sin_nombre_30"/><linearGradient id="Degradado_sin_nombre_10" x1="579.27" y1="164.18" x2="713.03" y2="164.18" gradientUnits="userSpaceOnUse"><stop offset="0.34" stop-color="#ffde00"/><stop offset="1" stop-color="#f39200"/></linearGradient><clipPath id="clip-path"><path class="cls-1" d="M380.23,269.1l-10.81,2.08A33.18,33.18,0,0,1,330.69,245L298.48,77.57A33.17,33.17,0,0,1,324.7,38.84l-6.51.31c17.86-3.43,52.61,6,56.05,23.83l32.22,167.39A33.17,33.17,0,0,1,380.23,269.1Z"/></clipPath><clipPath id="clip-path-2"><path class="cls-2" d="M416.23,265.93c-.89-4.48-3.25-16.25-4.4-22L374.51,58.55l-8.06-7-22.93.61L282.43,90.4a49.31,49.31,0,0,0-6.94,14.53s23.7-11.55,30.18,20.87c.89,4.48,3.24,16.25,4.39,22l2.45,12.25h0l6.74,33.75,12.47,61.31c6.81,34.09,16.38,76.14,64.36,69.41,21-2.95,42.95-12.63,50.34-37.75,0,0-23.71,11.55-30.18-20.87Z"/></clipPath><linearGradient id="Degradado_sin_nombre_30-5" x1="248.28" y1="78.72" x2="473.62" y2="304.07" xlink:href="#Degradado_sin_nombre_30"/><clipPath id="clip-path-3"><path class="cls-4" d="M104.77,246.65l7.9,3.38c16.61,3.2,30.49,5.38,33.69-11.24L177.82,75.31a30.87,30.87,0,0,0-24.4-36l-11.72-.12c-.3,7.45-28.5,8.12-39.64,21.57L72.67,213.43C69.47,230.05,88.15,243.45,104.77,246.65Z"/></clipPath><clipPath id="clip-path-4"><path class="cls-4" d="M59.64,265.93c.89-4.48,3.24-16.25,4.4-22L101.36,58.55l8.06-7,22.93.61L193.43,90.4a49.33,49.33,0,0,1,6.95,14.53S176.67,93.38,170.2,125.8c-.9,4.48-3.25,16.25-4.4,22l-2.45,12.25h0l-6.73,33.75-12.47,61.31c-6.81,34.09-16.39,76.14-64.36,69.41-21-2.95-43-12.63-50.35-37.75,0,0,23.71,11.55,30.19-20.87Z"/></clipPath><clipPath id="clip-path-5"><path class="cls-3" d="M323.72,35.72c-48-4.18-57.55,22-64.36,43.14l-3.81,11.87-16.27,49.09h0l-20.36,63.12c-1.15,3.59-3.5,10.91-4.4,13.69-6.47,20.15-29.05,10.77-29.05,10.77,7.39,15.61,28.11,26.37,49.21,25.66,53.59-1.8,59.78-21.29,64.36-43.13l19.38-60.12,21.06-64c1.15-3.59,3.51-10.91,4.4-13.69,6.48-20.16,30.19-13,30.19-13-7.39-15.61-29.32-21.63-50.35-23.46Z"/></clipPath><clipPath id="clip-path-6"><path class="cls-3" d="M152.94,35.72c48-4.18,57.55,22,64.36,43.14l3.81,11.87,16.26,49.09h0l20.36,63.12c1.15,3.59,3.5,10.91,4.4,13.69,6.47,20.15,30.36,13,30.36,13-7.39,15.61-29.49,21.6-50.53,23.43-48,4.19-57.55-21.95-64.35-43.13l-19.39-60.12-21-64c-1.16-3.59-3.51-10.91-4.4-13.69-6.48-20.16-30.19-13-30.19-13,7.39-15.61,29.32-21.63,50.35-23.46Z"/></clipPath><clipPath id="clip-path-7"><path class="cls-3" d="M31.45,120.19C59,107.75,70.94,124.85,80.06,138.9l5.11,7.87,21.42,32.46h0l27.22,41.84,5.89,9.08c8.67,13.36,9.29-5,9.29-5-.67,12.78-6.92,41.66-27.65,41.78-32,.19-49-4.47-57.61-82.44C57.93,131.74,7.11,147.1,7.11,147.1c.66-12.78,12.27-21.45,24.34-26.91Z"/></clipPath></defs><circle class="cls-5" cx="646.15" cy="164.18" r="66.88"/><path d="M550.34,102.75v71.3c0,52.67-28.28,69.47-64.54,69.47S421,226.72,421,174.05v-71.3a5.08,5.08,0,0,1,5.13-5.13h32.17a5,5,0,0,1,4.92,5.13v78.07c0,20.08,8.2,26.43,22.54,26.43,14.14,0,22.33-6.35,22.33-26.43V102.75a5.08,5.08,0,0,1,5.13-5.13h32A5.08,5.08,0,0,1,550.34,102.75Z"/><path d="M724.49,169.34c0,41-35.24,74.18-76.84,74.18-41.79,0-76.84-33.2-76.84-74.18s35.05-74.17,76.84-74.17C689.25,95.17,724.49,128.36,724.49,169.34Zm-40.57,0c0-20.9-16.18-37.7-36.27-37.7s-36.47,16.8-36.47,37.7,16.39,37.91,36.47,37.91S683.92,190.24,683.92,169.34Z"/><path d="M843.73,241.06c-5.94,0-8.19-1.85-10.45-5.12l-45.9-69.06v69.06a5.21,5.21,0,0,1-5.12,5.12H750.09a5.08,5.08,0,0,1-5.13-5.12V102.75a5.21,5.21,0,0,1,5.13-5.13h23.56c4.92,0,7.18,1.64,11.48,7.38s44.26,65.57,44.26,65.57V102.75a5.08,5.08,0,0,1,5.12-5.13h32a5.08,5.08,0,0,1,5.12,5.13V235.94a5.07,5.07,0,0,1-5.12,5.12Z"/><path d="M989,212.37c-4.31,16.8-19.88,31.15-54.3,31.15-21.93,0-35.45-8.2-40.58-11.47-1.84-1.24-2.45-2.88-1.63-6,.61-2.87,5.73-21.72,6.14-23.15a3.57,3.57,0,0,1,4.72-1.85c7.78,3.48,17,7.79,24.59,8.4,9.62.41,17.2-2.25,17.41-8.19,0-5.94-5.74-8.81-22.34-20.29-17.41-11.88-32.78-28.28-29.71-52.87,3.7-30.53,34.43-33,50.82-33A117.32,117.32,0,0,1,980,101.31c3.07.82,4.71,3.08,4.1,5.94-.41,2.46-4.1,21.31-4.51,23.78-.61,2.45-2,4.5-5.94,3.07-6.77-2.46-15.37-5.54-25.41-5.54-3.89,0-8.4,1.65-9.43,4.31-2.66,7,4.72,12.5,27.05,28.48C988.17,177.13,993.5,194.75,989,212.37Z"/><path class="cls-1" d="M380.23,269.1l-10.81,2.08A33.18,33.18,0,0,1,330.69,245L298.48,77.57A33.17,33.17,0,0,1,324.7,38.84l-6.51.31c17.86-3.43,52.61,6,56.05,23.83l32.22,167.39A33.17,33.17,0,0,1,380.23,269.1Z"/><g class="cls-6"><path class="cls-2" d="M416.23,265.93c-.89-4.48-3.25-16.25-4.4-22L374.51,58.55l-8.06-7-22.93.61L282.43,90.4a49.31,49.31,0,0,0-6.94,14.53s23.7-11.55,30.18,20.87c.89,4.48,3.24,16.25,4.39,22l2.45,12.25h0l6.74,33.75,12.47,61.31c6.81,34.09,16.38,76.14,64.36,69.41,21-2.95,42.95-12.63,50.34-37.75,0,0-23.71,11.55-30.18-20.87Z"/><g class="cls-7"><rect class="cls-8" x="275.49" y="51.51" width="170.93" height="279.77"/></g></g><path class="cls-4" d="M104.77,246.65l7.9,3.38c16.61,3.2,30.49,5.38,33.69-11.24L177.82,75.31a30.87,30.87,0,0,0-24.4-36l-11.72-.12c-.3,7.45-28.5,8.12-39.64,21.57L72.67,213.43C69.47,230.05,88.15,243.45,104.77,246.65Z"/><g class="cls-9"><path class="cls-4" d="M59.64,265.93c.89-4.48,3.24-16.25,4.4-22L101.36,58.55l8.06-7,22.93.61L193.43,90.4a49.33,49.33,0,0,1,6.95,14.53S176.67,93.38,170.2,125.8c-.9,4.48-3.25,16.25-4.4,22l-2.45,12.25h0l-6.73,33.75-12.47,61.31c-6.81,34.09-16.39,76.14-64.36,69.41-21-2.95-43-12.63-50.35-37.75,0,0,23.71,11.55,30.19-20.87Z"/><g class="cls-10"><rect class="cls-4" x="29.45" y="51.51" width="170.93" height="279.77"/></g></g><path class="cls-3" d="M323.72,35.72c-48-4.18-57.55,22-64.36,43.14l-3.81,11.87-16.27,49.09h0l-20.36,63.12c-1.15,3.59-3.5,10.91-4.4,13.69-6.47,20.15-29.05,10.77-29.05,10.77,7.39,15.61,28.11,26.37,49.21,25.66,53.59-1.8,59.78-21.29,64.36-43.13l19.38-60.12,21.06-64c1.15-3.59,3.51-10.91,4.4-13.69,6.48-20.16,30.19-13,30.19-13-7.39-15.61-29.32-21.63-50.35-23.46Z"/><g class="cls-11"><rect class="cls-3" x="184.15" y="31.54" width="189.91" height="225.71"/></g><path class="cls-3" d="M152.94,35.72c48-4.18,57.55,22,64.36,43.14l3.81,11.87,16.26,49.09h0l20.36,63.12c1.15,3.59,3.5,10.91,4.4,13.69,6.47,20.15,30.36,13,30.36,13-7.39,15.61-29.49,21.6-50.53,23.43-48,4.19-57.55-21.95-64.35-43.13l-19.39-60.12-21-64c-1.16-3.59-3.51-10.91-4.4-13.69-6.48-20.16-30.19-13-30.19-13,7.39-15.61,29.32-21.63,50.35-23.46Z"/><g class="cls-12"><rect class="cls-3" x="102.59" y="31.54" width="189.91" height="225.71"/></g><path class="cls-3" d="M31.45,120.19C59,107.75,70.94,124.85,80.06,138.9l5.11,7.87,21.42,32.46h0l27.22,41.84,5.89,9.08c8.67,13.36,9.29-5,9.29-5-.67,12.78-6.92,41.66-27.65,41.78-32,.19-49-4.47-57.61-82.44C57.93,131.74,7.11,147.1,7.11,147.1c.66-12.78,12.27-21.45,24.34-26.91Z"/><g class="cls-13"><rect class="cls-3" x="24.51" y="104.08" width="118.96" height="172.56" transform="translate(-55.35 35.85) rotate(-18.24)"/></g><path d="M995.58,93.53l32,78-32,73.65s102-37.73,100.88-74.78C1095.36,134.69,995.58,93.53,995.58,93.53Z"/><path d="M995.58,93.53l32,78-32,73.65s102-37.73,100.88-74.78C1095.36,134.69,995.58,93.53,995.58,93.53Z"/><path d="M995.58,93.53l32,78-32,73.65s102-37.73,100.88-74.78C1095.36,134.69,995.58,93.53,995.58,93.53Z"/><path d="M995.58,93.53l32,78-32,73.65s102-37.73,100.88-74.78C1095.36,134.69,995.58,93.53,995.58,93.53Z"/><path class="cls-14" d="M1096.77,80.86a29.65,29.65,0,1,1-29.64-29.64A29.64,29.64,0,0,1,1096.77,80.86ZM1067.13,56.6a24.27,24.27,0,1,0,24.27,24.26A24.26,24.26,0,0,0,1067.13,56.6Z"/><text class="cls-15" transform="translate(1048.95 96.51)">e</text></svg>